<svg width="20" height="20" viewBox="0 0 20 20" fill="none" xmlns="http://www.w3.org/2000/svg">
<path d="M4.31641 5.14844C5.6875 3.53516 7.71484 2.5 10 2.5C14.1445 2.5 17.5 5.85547 17.5 10H20C20 4.47656 15.5234 0 10 0C7.02344 0 4.36328 1.30469 2.53516 3.36719L0 0.832031V7.5H6.66797L4.31641 5.14844ZM15.6836 14.8516C14.3086 16.4648 12.2852 17.5 10 17.5C5.85547 17.5 2.5 14.1445 2.5 10H0C0 15.5234 4.47656 20 10 20C12.9766 20 15.6367 18.6953 17.4648 16.6328L20 19.168V12.5H13.332L15.6836 14.8516Z" fill="#2454CE"/>
</svg>