<svg width="115" height="158" viewBox="0 0 115 158" fill="none" xmlns="http://www.w3.org/2000/svg">
<path d="M10 2H77.6141L113 38.4541V148C113 152.418 109.418 156 105 156H10C5.58172 156 2 152.418 2 148V10C2 5.58172 5.58172 2 10 2Z" fill="white"/>
<path d="M77.6141 2H10C5.58172 2 2 5.58172 2 10V148C2 152.418 5.58172 156 10 156H105C109.418 156 113 152.418 113 148V38.4541M77.6141 2L113 38.4541M77.6141 2V30.4541C77.6141 34.8724 81.1958 38.4541 85.6141 38.4541H113" stroke="#2454CE" stroke-width="3"/>
<path d="M30 88C27.7909 85.7909 27.7909 82.2091 30 80C32.2091 77.7909 35.7909 77.7909 38 80L45.0503 87.0503C47.7839 89.7839 52.2161 89.7839 54.9497 87.0503L78 64C80.2091 61.7909 83.7909 61.7909 86 64C88.2091 66.2091 88.2091 69.7909 86 72L54.9497 103.05C52.2161 105.784 47.7839 105.784 45.0503 103.05L30 88Z" fill="#2454CE"/>
</svg>
